<svg width="26" height="26" viewBox="0 0 26 26" fill="none" xmlns="http://www.w3.org/2000/svg">
<path d="M22.208 11.0392H19.0772C16.5097 11.0392 14.4188 8.94841 14.4188 6.38091V3.25008C14.4188 2.65425 13.9313 2.16675 13.3355 2.16675H8.74217C5.40551 2.16675 2.70801 4.33341 2.70801 8.20091V17.7992C2.70801 21.6667 5.40551 23.8334 8.74217 23.8334H17.2572C20.5938 23.8334 23.2913 21.6667 23.2913 17.7992V12.1226C23.2913 11.5267 22.8038 11.0392 22.208 11.0392ZM13.303 17.0951L11.1363 19.2617C11.0605 19.3376 10.963 19.4026 10.8655 19.4351C10.768 19.4784 10.6705 19.5001 10.5622 19.5001C10.4538 19.5001 10.3563 19.4784 10.2588 19.4351C10.1722 19.4026 10.0855 19.3376 10.0205 19.2726C10.0097 19.2617 9.99884 19.2617 9.99884 19.2509L7.83217 17.0842C7.51801 16.7701 7.51801 16.2501 7.83217 15.9359C8.14634 15.6217 8.66634 15.6217 8.98051 15.9359L9.74967 16.7267V12.1876C9.74967 11.7434 10.118 11.3751 10.5622 11.3751C11.0063 11.3751 11.3747 11.7434 11.3747 12.1876V16.7267L12.1547 15.9467C12.4688 15.6326 12.9888 15.6326 13.303 15.9467C13.6172 16.2609 13.6172 16.7809 13.303 17.0951Z" fill="#1B1B1B"/>
<path d="M18.8825 9.5442C19.9117 9.55503 21.3417 9.55503 22.5658 9.55503C23.1833 9.55503 23.5083 8.8292 23.075 8.39587C21.515 6.82503 18.72 3.99753 17.1167 2.3942C16.6725 1.95003 15.9033 2.25337 15.9033 2.87087V6.6517C15.9033 8.23337 17.2467 9.5442 18.8825 9.5442Z" fill="#1B1B1B"/>
</svg>
