<svg width="26" height="26" viewBox="0 0 26 26" fill="none" xmlns="http://www.w3.org/2000/svg">
<path d="M18.7507 12.0279C18.6393 11.7818 18.3946 11.625 18.1251 11.625H15.3751V2.6875C15.3751 2.308 15.0671 2 14.6876 2H11.9376C11.5581 2 11.2501 2.308 11.2501 2.6875V11.625H8.50008C8.23058 11.625 7.98583 11.7831 7.87446 12.0279C7.76171 12.274 7.80571 12.5614 7.98308 12.7649L12.7956 18.2649C12.9262 18.4148 13.1146 18.5 13.3126 18.5C13.5106 18.5 13.699 18.4134 13.8296 18.2649L18.6421 12.7649C18.8208 12.5627 18.8621 12.274 18.7507 12.0279Z" fill="#1B1B1B"/>
<path d="M20.875 17.125V21.25H5.75V17.125H3V22.625C3 23.3854 3.616 24 4.375 24H22.25C23.0104 24 23.625 23.3854 23.625 22.625V17.125H20.875Z" fill="#1B1B1B"/>
</svg>
