<svg width="255" height="687" viewBox="0 0 255 687" fill="none" xmlns="http://www.w3.org/2000/svg">
<g opacity="0.1">
<path d="M17.8332 21.653C17.8934 21.653 17.9535 21.5928 17.9535 21.5327C17.9535 21.4725 17.8934 21.4124 17.8332 21.4124C17.7731 21.4124 17.7129 21.4725 17.7129 21.5327C17.7129 21.5928 17.7731 21.653 17.8332 21.653Z" fill="#EF582A"/>
<path d="M17.8316 43.6369C18.1925 43.6369 18.4933 43.3361 18.4933 42.9752C18.4933 42.6142 18.1925 42.3135 17.8316 42.3135C17.4707 42.3135 17.1699 42.6142 17.1699 42.9752C17.1699 43.3361 17.4707 43.6369 17.8316 43.6369Z" fill="#EF582A"/>
<path d="M39.3068 43.4263C39.5394 43.4263 39.7279 43.2377 39.7279 43.0052C39.7279 42.7726 39.5394 42.5841 39.3068 42.5841C39.0743 42.5841 38.8857 42.7726 38.8857 43.0052C38.8857 43.2377 39.0743 43.4263 39.3068 43.4263Z" fill="#EF582A"/>
<path d="M60.7528 43.1855C60.8524 43.1855 60.9332 43.1047 60.9332 43.0051C60.9332 42.9054 60.8524 42.8246 60.7528 42.8246C60.6531 42.8246 60.5723 42.9054 60.5723 43.0051C60.5723 43.1047 60.6531 43.1855 60.7528 43.1855Z" fill="#EF582A"/>
<path d="M17.8316 65.7108C18.5293 65.7108 19.0949 65.1452 19.0949 64.4476C19.0949 63.7499 18.5293 63.1843 17.8316 63.1843C17.1339 63.1843 16.5684 63.7499 16.5684 64.4476C16.5684 65.1452 17.1339 65.7108 17.8316 65.7108Z" fill="#EF582A"/>
<path d="M39.3068 65.4703C39.8783 65.4703 40.3295 65.0191 40.3295 64.4477C40.3295 63.8762 39.8783 63.425 39.3068 63.425C38.7353 63.425 38.2842 63.8762 38.2842 64.4477C38.2842 65.0191 38.7353 65.4703 39.3068 65.4703Z" fill="#EF582A"/>
<path d="M60.7521 65.1692C61.1431 65.1692 61.474 64.8383 61.474 64.4473C61.474 64.0563 61.1431 63.7255 60.7521 63.7255C60.3611 63.7255 60.0303 64.0563 60.0303 64.4473C60.0303 64.8383 60.3611 65.1692 60.7521 65.1692Z" fill="#EF582A"/>
<path d="M82.2277 64.8687C82.4683 64.8687 82.6488 64.6882 82.6488 64.4476C82.6488 64.207 82.4683 64.0265 82.2277 64.0265C81.9871 64.0265 81.8066 64.207 81.8066 64.4476C81.8066 64.6882 82.0172 64.8687 82.2277 64.8687Z" fill="#EF582A"/>
<path d="M103.702 64.5679C103.763 64.5679 103.823 64.5077 103.823 64.4476C103.823 64.3874 103.763 64.3273 103.702 64.3273C103.642 64.3273 103.582 64.3874 103.582 64.4476C103.582 64.5077 103.642 64.5679 103.702 64.5679Z" fill="#EF582A"/>
<path d="M17.8318 87.7548C18.8544 87.7548 19.6665 86.9427 19.6665 85.92C19.6665 84.8974 18.8544 84.0853 17.8318 84.0853C16.8092 84.0853 15.9971 84.8974 15.9971 85.92C15.9971 86.9427 16.8092 87.7548 17.8318 87.7548Z" fill="#EF582A"/>
<path d="M39.3074 87.4541C40.1545 87.4541 40.8413 86.7673 40.8413 85.9202C40.8413 85.073 40.1545 84.3862 39.3074 84.3862C38.4602 84.3862 37.7734 85.073 37.7734 85.9202C37.7734 86.7673 38.4602 87.4541 39.3074 87.4541Z" fill="#EF582A"/>
<path d="M60.7525 87.1834C61.4502 87.1834 62.0158 86.6178 62.0158 85.9201C62.0158 85.2224 61.4502 84.6569 60.7525 84.6569C60.0549 84.6569 59.4893 85.2224 59.4893 85.9201C59.4893 86.6178 60.0549 87.1834 60.7525 87.1834Z" fill="#EF582A"/>
<path d="M82.2281 86.8825C82.7596 86.8825 83.1906 86.4516 83.1906 85.92C83.1906 85.3884 82.7596 84.9575 82.2281 84.9575C81.6965 84.9575 81.2656 85.3884 81.2656 85.92C81.2656 86.4516 81.6965 86.8825 82.2281 86.8825Z" fill="#EF582A"/>
<path d="M103.703 86.5216C104.035 86.5216 104.305 86.2523 104.305 85.92C104.305 85.5878 104.035 85.3185 103.703 85.3185C103.371 85.3185 103.102 85.5878 103.102 85.92C103.102 86.2523 103.371 86.5216 103.703 86.5216Z" fill="#EF582A"/>
<path d="M125.179 86.1004C125.269 86.1004 125.359 86.0102 125.359 85.92C125.359 85.8297 125.269 85.7395 125.179 85.7395C125.088 85.7395 124.998 85.8297 124.998 85.92C124.998 86.0102 125.058 86.1004 125.179 86.1004Z" fill="#EF582A"/>
<path d="M18.3626 109.677C19.6398 109.376 20.4306 108.096 20.129 106.819C19.8274 105.542 18.5476 104.751 17.2705 105.053C15.9933 105.354 15.2025 106.634 15.5041 107.911C15.8057 109.188 17.0855 109.979 18.3626 109.677Z" fill="#EF582A"/>
<path d="M39.3074 109.528C40.4868 109.528 41.4428 108.572 41.4428 107.393C41.4428 106.213 40.4868 105.257 39.3074 105.257C38.128 105.257 37.1719 106.213 37.1719 107.393C37.1719 108.572 38.128 109.528 39.3074 109.528Z" fill="#EF582A"/>
<path d="M60.7531 109.167C61.7456 109.167 62.5276 108.355 62.5276 107.393C62.5276 106.4 61.7156 105.618 60.7531 105.618C59.7605 105.618 58.9785 106.43 58.9785 107.393C58.9785 108.385 59.7906 109.167 60.7531 109.167Z" fill="#EF582A"/>
<path d="M82.2279 108.836C83.0252 108.836 83.6716 108.19 83.6716 107.392C83.6716 106.595 83.0252 105.949 82.2279 105.949C81.4305 105.949 80.7842 106.595 80.7842 107.392C80.7842 108.19 81.4305 108.836 82.2279 108.836Z" fill="#EF582A"/>
<path d="M103.703 108.445C104.304 108.445 104.786 107.964 104.786 107.363C104.786 106.761 104.304 106.28 103.703 106.28C103.101 106.28 102.62 106.761 102.62 107.363C102.62 107.964 103.101 108.445 103.703 108.445Z" fill="#EF582A"/>
<path d="M125.178 108.054C125.539 108.054 125.84 107.753 125.84 107.392C125.84 107.031 125.539 106.731 125.178 106.731C124.817 106.731 124.517 107.031 124.517 107.392C124.517 107.753 124.817 108.054 125.178 108.054Z" fill="#EF582A"/>
<path d="M146.623 107.633C146.744 107.633 146.864 107.513 146.864 107.392C146.864 107.272 146.744 107.152 146.623 107.152C146.503 107.152 146.383 107.272 146.383 107.392C146.413 107.513 146.503 107.633 146.623 107.633Z" fill="#EF582A"/>
<path d="M18.3192 131.797C19.9425 131.534 21.0449 130.005 20.7814 128.381C20.5179 126.758 18.9883 125.656 17.365 125.919C15.7417 126.182 14.6394 127.712 14.9029 129.335C15.1663 130.959 16.6959 132.061 18.3192 131.797Z" fill="#EF582A"/>
<path d="M39.3077 131.542C40.7861 131.542 41.9846 130.344 41.9846 128.865C41.9846 127.387 40.7861 126.188 39.3077 126.188C37.8293 126.188 36.6309 127.387 36.6309 128.865C36.6309 130.344 37.8293 131.542 39.3077 131.542Z" fill="#EF582A"/>
<path d="M60.7525 131.181C62.0458 131.181 63.0684 130.128 63.0684 128.865C63.0684 127.572 62.0157 126.549 60.7525 126.549C59.4592 126.549 58.4365 127.602 58.4365 128.865C58.4365 130.128 59.4893 131.181 60.7525 131.181Z" fill="#EF582A"/>
<path d="M82.2275 130.82C83.3103 130.82 84.1825 129.948 84.1825 128.865C84.1825 127.782 83.3103 126.91 82.2275 126.91C81.1447 126.91 80.2725 127.782 80.2725 128.865C80.2725 129.948 81.1447 130.82 82.2275 130.82Z" fill="#EF582A"/>
<path d="M103.704 130.399C104.551 130.399 105.238 129.712 105.238 128.865C105.238 128.018 104.551 127.331 103.704 127.331C102.857 127.331 102.17 128.018 102.17 128.865C102.17 129.712 102.857 130.399 103.704 130.399Z" fill="#EF582A"/>
<path d="M125.178 129.978C125.81 129.978 126.321 129.467 126.321 128.835C126.321 128.203 125.81 127.692 125.178 127.692C124.546 127.692 124.035 128.203 124.035 128.835C124.035 129.467 124.546 129.978 125.178 129.978Z" fill="#EF582A"/>
<path d="M146.624 129.497C146.985 129.497 147.285 129.196 147.285 128.835C147.285 128.474 146.985 128.173 146.624 128.173C146.263 128.173 145.962 128.474 145.962 128.835C145.992 129.226 146.263 129.497 146.624 129.497Z" fill="#EF582A"/>
<path d="M168.098 129.075C168.218 129.075 168.339 128.955 168.339 128.835C168.339 128.715 168.218 128.594 168.098 128.594C167.978 128.594 167.857 128.715 167.857 128.835C167.857 128.985 167.978 129.075 168.098 129.075Z" fill="#EF582A"/>
<path d="M-0.950229 153.016C0.541583 151.525 0.541596 149.106 -0.950216 147.615C-2.44203 146.123 -4.86075 146.123 -6.35256 147.615C-7.84437 149.106 -7.84436 151.525 -6.35255 153.016C-4.86074 154.508 -2.44204 154.508 -0.950229 153.016Z" fill="#EF582A"/>
<path d="M21.0848 151.651C21.8287 149.855 20.9761 147.797 19.1804 147.053C17.3848 146.309 15.3261 147.162 14.5822 148.958C13.8384 150.753 14.691 152.812 16.4867 153.555C18.2823 154.299 20.341 153.446 21.0848 151.651Z" fill="#EF582A"/>
<path d="M39.3071 153.526C41.0817 153.526 42.5254 152.082 42.5254 150.308C42.5254 148.533 41.0817 147.089 39.3071 147.089C37.5326 147.089 36.0889 148.533 36.0889 150.308C36.0889 152.082 37.5326 153.526 39.3071 153.526Z" fill="#EF582A"/>
<path d="M60.7523 153.105C62.2862 153.105 63.5495 151.842 63.5495 150.308C63.5495 148.774 62.2862 147.511 60.7523 147.511C59.2183 147.511 57.9551 148.774 57.9551 150.308C57.9551 151.842 59.2183 153.105 60.7523 153.105Z" fill="#EF582A"/>
<path d="M82.2273 152.744C83.5807 152.744 84.6636 151.661 84.6636 150.308C84.6636 148.954 83.5807 147.871 82.2273 147.871C80.8738 147.871 79.791 148.954 79.791 150.308C79.791 151.661 80.8738 152.744 82.2273 152.744Z" fill="#EF582A"/>
<path d="M103.704 152.353C104.817 152.353 105.719 151.451 105.719 150.338C105.719 149.225 104.817 148.323 103.704 148.323C102.591 148.323 101.688 149.225 101.688 150.338C101.688 151.451 102.591 152.353 103.704 152.353Z" fill="#EF582A"/>
<path d="M125.178 151.842C126.026 151.842 126.712 151.155 126.712 150.308C126.712 149.46 126.026 148.774 125.178 148.774C124.331 148.774 123.645 149.46 123.645 150.308C123.645 151.155 124.331 151.842 125.178 151.842Z" fill="#EF582A"/>
<path d="M146.623 151.39C147.224 151.39 147.706 150.909 147.706 150.307C147.706 149.706 147.224 149.225 146.623 149.225C146.021 149.225 145.54 149.706 145.54 150.307C145.54 150.909 146.051 151.39 146.623 151.39Z" fill="#EF582A"/>
<path d="M168.099 150.909C168.429 150.909 168.7 150.638 168.7 150.307C168.7 149.977 168.429 149.706 168.099 149.706C167.768 149.706 167.497 149.977 167.497 150.307C167.497 150.638 167.768 150.909 168.099 150.909Z" fill="#EF582A"/>
<path d="M189.573 150.428C189.634 150.428 189.694 150.367 189.694 150.307C189.694 150.247 189.634 150.187 189.573 150.187C189.513 150.187 189.453 150.247 189.453 150.307C189.453 150.367 189.513 150.428 189.573 150.428Z" fill="#EF582A"/>
<path d="M-3.64253 176.142C-1.23634 176.142 0.688612 174.187 0.688612 171.81C0.688612 169.404 -1.26642 167.479 -3.64253 167.479C-6.01864 167.479 -7.97363 169.434 -7.97363 171.81C-7.97363 174.187 -6.04871 176.142 -3.64253 176.142Z" fill="#EF582A"/>
<path d="M17.8329 175.841C20.0586 175.841 21.8933 174.036 21.8933 171.78C21.8933 169.555 20.0887 167.72 17.8329 167.72C15.6072 167.72 13.7725 169.525 13.7725 171.78C13.7725 174.006 15.6072 175.841 17.8329 175.841Z" fill="#EF582A"/>
<path d="M39.3079 175.48C41.3511 175.48 43.0074 173.823 43.0074 171.78C43.0074 169.737 41.3511 168.081 39.3079 168.081C37.2647 168.081 35.6084 169.737 35.6084 171.78C35.6084 173.823 37.2647 175.48 39.3079 175.48Z" fill="#EF582A"/>
<path d="M60.7527 175.119C62.5874 175.119 64.0912 173.615 64.0912 171.78C64.0912 169.946 62.5874 168.442 60.7527 168.442C58.918 168.442 57.4141 169.946 57.4141 171.78C57.4441 173.615 58.918 175.119 60.7527 175.119Z" fill="#EF582A"/>
<path d="M82.2271 174.698C83.8512 174.698 85.1446 173.404 85.1446 171.78C85.1446 170.156 83.8512 168.863 82.2271 168.863C80.6029 168.863 79.3096 170.156 79.3096 171.78C79.3096 173.404 80.633 174.698 82.2271 174.698Z" fill="#EF582A"/>
<path d="M103.703 174.216C105.056 174.216 106.139 173.134 106.139 171.78C106.139 170.427 105.056 169.344 103.703 169.344C102.349 169.344 101.267 170.427 101.267 171.78C101.267 173.134 102.349 174.216 103.703 174.216Z" fill="#EF582A"/>
<path d="M125.178 173.735C126.261 173.735 127.133 172.863 127.133 171.78C127.133 170.697 126.261 169.825 125.178 169.825C124.096 169.825 123.223 170.697 123.223 171.78C123.193 172.863 124.096 173.735 125.178 173.735Z" fill="#EF582A"/>
<path d="M146.622 173.224C147.404 173.224 148.066 172.592 148.066 171.78C148.066 170.998 147.435 170.336 146.622 170.336C145.84 170.336 145.179 170.968 145.179 171.78C145.209 172.562 145.84 173.224 146.622 173.224Z" fill="#EF582A"/>
<path d="M168.098 172.742C168.61 172.742 169.061 172.321 169.061 171.78C169.061 171.269 168.64 170.817 168.098 170.817C167.587 170.817 167.136 171.238 167.136 171.78C167.166 172.321 167.587 172.742 168.098 172.742Z" fill="#EF582A"/>
<path d="M189.574 172.201C189.815 172.201 189.995 172.021 189.995 171.78C189.995 171.539 189.815 171.359 189.574 171.359C189.334 171.359 189.153 171.539 189.153 171.78C189.153 172.021 189.334 172.201 189.574 172.201Z" fill="#EF582A"/>
<path d="M211.05 171.841C211.08 171.841 211.11 171.81 211.11 171.78C211.11 171.75 211.08 171.72 211.05 171.72C211.019 171.72 210.989 171.75 210.989 171.78C210.989 171.81 211.019 171.841 211.05 171.841Z" fill="#EF582A"/>
<path d="M-3.64352 198.186C-0.919278 198.186 1.28917 195.977 1.28917 193.253C1.28917 190.529 -0.919278 188.32 -3.64352 188.32C-6.36777 188.32 -8.57617 190.529 -8.57617 193.253C-8.57617 195.977 -6.36777 198.186 -3.64352 198.186Z" fill="#EF582A"/>
<path d="M17.8325 197.825C20.359 197.825 22.4043 195.779 22.4043 193.253C22.4043 190.726 20.359 188.681 17.8325 188.681C15.306 188.681 13.2607 190.726 13.2607 193.253C13.2607 195.779 15.306 197.825 17.8325 197.825Z" fill="#EF582A"/>
<path d="M39.3073 197.464C41.6533 197.464 43.5482 195.569 43.5482 193.223C43.5482 190.877 41.6533 188.982 39.3073 188.982C36.9613 188.982 35.0664 190.877 35.0664 193.223C35.0664 195.569 36.9613 197.464 39.3073 197.464Z" fill="#EF582A"/>
<path d="M60.7528 197.012C62.8282 197.012 64.5125 195.328 64.5125 193.253C64.5125 191.177 62.8282 189.493 60.7528 189.493C58.6775 189.493 56.9932 191.177 56.9932 193.253C56.9932 195.328 58.7076 197.012 60.7528 197.012Z" fill="#EF582A"/>
<path d="M82.2272 196.591C84.062 196.591 85.5659 195.087 85.5659 193.253C85.5659 191.418 84.062 189.914 82.2272 189.914C80.3925 189.914 78.8887 191.418 78.8887 193.253C78.8887 195.087 80.3925 196.591 82.2272 196.591Z" fill="#EF582A"/>
<path d="M103.703 196.11C105.267 196.11 106.56 194.817 106.56 193.253C106.56 191.689 105.267 190.395 103.703 190.395C102.139 190.395 100.846 191.689 100.846 193.253C100.846 194.817 102.139 196.11 103.703 196.11Z" fill="#EF582A"/>
<path d="M125.179 195.569C126.473 195.569 127.495 194.516 127.495 193.253C127.495 191.959 126.442 190.937 125.179 190.937C123.886 190.937 122.863 191.989 122.863 193.253C122.863 194.516 123.886 195.569 125.179 195.569Z" fill="#EF582A"/>
<path d="M146.624 195.087C147.637 195.087 148.459 194.266 148.459 193.253C148.459 192.239 147.637 191.418 146.624 191.418C145.611 191.418 144.789 192.239 144.789 193.253C144.789 194.266 145.611 195.087 146.624 195.087Z" fill="#EF582A"/>
<path d="M168.098 194.486C168.79 194.486 169.361 193.914 169.361 193.222C169.361 192.531 168.79 191.959 168.098 191.959C167.406 191.959 166.835 192.531 166.835 193.222C166.865 193.944 167.406 194.486 168.098 194.486Z" fill="#EF582A"/>
<path d="M189.573 193.974C189.972 193.974 190.295 193.651 190.295 193.252C190.295 192.854 189.972 192.531 189.573 192.531C189.175 192.531 188.852 192.854 188.852 193.252C188.852 193.651 189.175 193.974 189.573 193.974Z" fill="#EF582A"/>
<path d="M211.05 193.433C211.14 193.433 211.23 193.343 211.23 193.252C211.23 193.162 211.14 193.072 211.05 193.072C210.959 193.072 210.869 193.162 210.869 193.252C210.869 193.343 210.959 193.433 211.05 193.433Z" fill="#EF582A"/>
<path d="M-3.64313 220.198C-0.605321 220.198 1.83096 217.732 1.83096 214.725C1.83096 211.687 -0.635399 209.251 -3.64313 209.251C-6.68094 209.251 -9.11719 211.717 -9.11719 214.725C-9.11719 217.732 -6.65086 220.198 -3.64313 220.198Z" fill="#EF582A"/>
<path d="M17.8329 219.839C20.6601 219.839 22.946 217.553 22.946 214.725C22.946 211.898 20.6601 209.612 17.8329 209.612C15.0056 209.612 12.7197 211.898 12.7197 214.725C12.7197 217.553 15.0056 219.839 17.8329 219.839Z" fill="#EF582A"/>
<path d="M39.308 219.357C41.8646 219.357 43.9399 217.282 43.9399 214.726C43.9399 212.169 41.8646 210.094 39.308 210.094C36.7514 210.094 34.6761 212.169 34.6761 214.726C34.646 217.282 36.7214 219.357 39.308 219.357Z" fill="#EF582A"/>
<path d="M60.7526 218.936C63.0987 218.936 64.9935 217.041 64.9935 214.695C64.9935 212.349 63.0987 210.454 60.7526 210.454C58.4066 210.454 56.5117 212.349 56.5117 214.695C56.5418 217.041 58.4367 218.936 60.7526 218.936Z" fill="#EF582A"/>
<path d="M82.2284 218.455C84.3037 218.455 85.9881 216.77 85.9881 214.695C85.9881 212.62 84.3037 210.935 82.2284 210.935C80.1531 210.935 78.4688 212.62 78.4688 214.695C78.4988 216.77 80.1531 218.455 82.2284 218.455Z" fill="#EF582A"/>
<path d="M103.703 217.913C105.477 217.913 106.921 216.47 106.921 214.695C106.921 212.921 105.477 211.477 103.703 211.477C101.928 211.477 100.484 212.921 100.484 214.695C100.484 216.5 101.928 217.913 103.703 217.913Z" fill="#EF582A"/>
<path d="M125.779 217.29C127.218 216.951 128.109 215.509 127.769 214.07C127.429 212.632 125.987 211.741 124.549 212.08C123.11 212.42 122.219 213.862 122.559 215.3C122.898 216.739 124.34 217.63 125.779 217.29Z" fill="#EF582A"/>
<path d="M146.623 216.861C147.796 216.861 148.758 215.898 148.758 214.725C148.758 213.552 147.796 212.59 146.623 212.59C145.45 212.59 144.487 213.552 144.487 214.725C144.487 215.898 145.45 216.861 146.623 216.861Z" fill="#EF582A"/>
<path d="M168.099 216.319C169.001 216.319 169.693 215.597 169.693 214.725C169.693 213.823 168.971 213.131 168.099 213.131C167.197 213.131 166.505 213.853 166.505 214.725C166.505 215.597 167.227 216.319 168.099 216.319Z" fill="#EF582A"/>
<path d="M189.573 215.717C190.145 215.717 190.596 215.266 190.596 214.695C190.596 214.123 190.145 213.672 189.573 213.672C189.002 213.672 188.551 214.123 188.551 214.695C188.551 215.266 189.002 215.717 189.573 215.717Z" fill="#EF582A"/>
<path d="M211.049 215.176C211.319 215.176 211.53 214.965 211.53 214.695C211.53 214.424 211.319 214.214 211.049 214.214C210.778 214.214 210.567 214.424 210.567 214.695C210.567 214.965 210.778 215.176 211.049 215.176Z" fill="#EF582A"/>
<path d="M232.524 214.786C232.555 214.786 232.585 214.755 232.585 214.725C232.585 214.695 232.555 214.665 232.524 214.665C232.494 214.665 232.464 214.695 232.464 214.725C232.464 214.755 232.464 214.786 232.524 214.786Z" fill="#EF582A"/>
<path d="M-3.64335 242.122C-0.354321 242.122 2.31198 239.456 2.31198 236.167C2.31198 232.879 -0.354321 230.213 -3.64335 230.213C-6.93237 230.213 -9.59863 232.879 -9.59863 236.167C-9.59863 239.456 -6.93237 242.122 -3.64335 242.122Z" fill="#EF582A"/>
<path d="M17.8327 241.761C20.9306 241.761 23.427 239.265 23.427 236.167C23.427 233.07 20.9306 230.574 17.8327 230.574C14.7347 230.574 12.2383 233.07 12.2383 236.167C12.2383 239.265 14.7347 241.761 17.8327 241.761Z" fill="#EF582A"/>
<path d="M39.3078 241.311C42.135 241.311 44.4209 239.025 44.4209 236.198C44.4209 233.371 42.135 231.085 39.3078 231.085C36.4805 231.085 34.1946 233.371 34.1946 236.198C34.1645 238.995 36.4805 241.311 39.3078 241.311Z" fill="#EF582A"/>
<path d="M60.7534 240.77C63.2799 240.77 65.3252 238.724 65.3252 236.198C65.3252 233.671 63.2799 231.626 60.7534 231.626C58.2269 231.626 56.1816 233.671 56.1816 236.198C56.1816 238.724 58.2269 240.77 60.7534 240.77Z" fill="#EF582A"/>
<path d="M82.2274 240.228C84.4532 240.228 86.2879 238.423 86.2879 236.168C86.2879 233.942 84.4832 232.107 82.2274 232.107C79.9716 232.107 78.167 233.912 78.167 236.168C78.1971 238.423 80.0017 240.228 82.2274 240.228Z" fill="#EF582A"/>
<path d="M103.702 239.747C105.687 239.747 107.281 238.153 107.281 236.168C107.281 234.183 105.687 232.589 103.702 232.589C101.717 232.589 100.123 234.183 100.123 236.168C100.123 238.153 101.717 239.747 103.702 239.747Z" fill="#EF582A"/>
<path d="M125.536 239.107C127.17 238.92 128.344 237.445 128.158 235.811C127.971 234.177 126.496 233.003 124.862 233.189C123.228 233.375 122.054 234.851 122.24 236.485C122.427 238.119 123.902 239.293 125.536 239.107Z" fill="#EF582A"/>
<path d="M146.624 238.604C147.977 238.604 149.06 237.521 149.06 236.168C149.06 234.814 147.977 233.731 146.624 233.731C145.27 233.731 144.188 234.814 144.188 236.168C144.188 237.521 145.3 238.604 146.624 238.604Z" fill="#EF582A"/>
<path d="M168.098 238.032C169.121 238.032 169.933 237.22 169.933 236.198C169.933 235.175 169.121 234.363 168.098 234.363C167.076 234.363 166.264 235.175 166.264 236.198C166.264 237.19 167.076 238.032 168.098 238.032Z" fill="#EF582A"/>
<path d="M189.574 237.431C190.266 237.431 190.837 236.859 190.837 236.167C190.837 235.476 190.266 234.904 189.574 234.904C188.882 234.904 188.311 235.476 188.311 236.167C188.311 236.859 188.882 237.431 189.574 237.431Z" fill="#EF582A"/>
<path d="M211.049 236.829C211.41 236.829 211.711 236.528 211.711 236.167C211.711 235.806 211.41 235.506 211.049 235.506C210.688 235.506 210.388 235.806 210.388 236.167C210.388 236.528 210.688 236.829 211.049 236.829Z" fill="#EF582A"/>
<path d="M232.524 236.288C232.584 236.288 232.644 236.227 232.644 236.167C232.644 236.107 232.584 236.047 232.524 236.047C232.463 236.047 232.403 236.107 232.403 236.167C232.403 236.258 232.433 236.288 232.524 236.288Z" fill="#EF582A"/>
<path d="M-3.64356 264.075C-0.0944395 264.075 2.79299 261.188 2.79299 257.64C2.79299 254.091 -0.0944395 251.204 -3.64356 251.204C-7.19269 251.204 -10.0801 254.091 -10.0801 257.64C-10.0801 261.188 -7.19269 264.075 -3.64356 264.075Z" fill="#EF582A"/>
<path d="M17.8328 263.655C21.1413 263.655 23.8483 260.948 23.8483 257.64C23.8483 254.332 21.1413 251.625 17.8328 251.625C14.5243 251.625 11.8174 254.332 11.8174 257.64C11.8174 260.978 14.5243 263.655 17.8328 263.655Z" fill="#EF582A"/>
<path d="M39.3071 263.113C42.3449 263.113 44.7811 260.647 44.7811 257.64C44.7811 254.602 42.3148 252.166 39.3071 252.166C36.2693 252.166 33.833 254.632 33.833 257.64C33.833 260.677 36.2693 263.113 39.3071 263.113Z" fill="#EF582A"/>
<path d="M60.753 262.573C63.49 262.573 65.6856 260.347 65.6856 257.64C65.6856 254.903 63.46 252.708 60.753 252.708C58.016 252.708 55.8203 254.933 55.8203 257.64C55.8203 260.377 58.046 262.573 60.753 262.573Z" fill="#EF582A"/>
<path d="M82.2272 262.062C84.6635 262.062 86.6185 260.077 86.6185 257.67C86.6185 255.234 84.6334 253.279 82.2272 253.279C79.791 253.279 77.8359 255.264 77.8359 257.67C77.8359 260.077 79.791 262.062 82.2272 262.062Z" fill="#EF582A"/>
<path d="M103.703 261.46C105.808 261.46 107.522 259.746 107.522 257.64C107.522 255.535 105.808 253.821 103.703 253.821C101.597 253.821 99.8828 255.535 99.8828 257.64C99.8828 259.746 101.597 261.46 103.703 261.46Z" fill="#EF582A"/>
<path d="M125.178 260.858C126.953 260.858 128.396 259.415 128.396 257.64C128.396 255.866 126.953 254.422 125.178 254.422C123.404 254.422 121.96 255.866 121.96 257.64C121.96 259.415 123.404 260.858 125.178 260.858Z" fill="#EF582A"/>
<path d="M146.623 260.317C148.097 260.317 149.3 259.114 149.3 257.64C149.3 256.166 148.097 254.963 146.623 254.963C145.149 254.963 143.946 256.166 143.946 257.64C143.946 259.114 145.149 260.317 146.623 260.317Z" fill="#EF582A"/>
<path d="M168.099 259.715C169.242 259.715 170.174 258.783 170.174 257.64C170.174 256.497 169.242 255.565 168.099 255.565C166.956 255.565 166.023 256.497 166.023 257.64C166.023 258.783 166.956 259.715 168.099 259.715Z" fill="#EF582A"/>
<path d="M189.573 259.144C190.386 259.144 191.047 258.482 191.047 257.67C191.047 256.858 190.386 256.196 189.573 256.196C188.761 256.196 188.1 256.858 188.1 257.67C188.1 258.452 188.761 259.144 189.573 259.144Z" fill="#EF582A"/>
<path d="M211.049 258.542C211.53 258.542 211.951 258.151 211.951 257.64C211.951 257.159 211.56 256.738 211.049 256.738C210.568 256.738 210.146 257.129 210.146 257.64C210.146 258.151 210.537 258.542 211.049 258.542Z" fill="#EF582A"/>
<path d="M232.524 257.941C232.675 257.941 232.825 257.82 232.825 257.64C232.825 257.489 232.705 257.339 232.524 257.339C232.374 257.339 232.224 257.459 232.224 257.64C232.224 257.82 232.344 257.941 232.524 257.941Z" fill="#EF582A"/>
<path d="M-3.64239 285.939C0.147347 285.939 3.21525 282.871 3.21525 279.082C3.21525 275.293 0.147347 272.225 -3.64239 272.225C-7.43214 272.225 -10.5 275.293 -10.5 279.082C-10.4699 282.901 -7.43214 285.939 -3.64239 285.939Z" fill="#EF582A"/>
<path d="M17.8319 285.428C21.3208 285.428 24.1481 282.601 24.1481 279.112C24.1481 275.624 21.3208 272.797 17.8319 272.797C14.3429 272.797 11.5156 275.624 11.5156 279.112C11.5156 282.601 14.3429 285.428 17.8319 285.428Z" fill="#EF582A"/>
<path d="M39.308 284.886C42.4962 284.886 45.0829 282.3 45.0829 279.112C45.0829 275.924 42.4962 273.338 39.308 273.338C36.1198 273.338 33.5332 275.924 33.5332 279.112C33.5332 282.3 36.1198 284.886 39.308 284.886Z" fill="#EF582A"/>
<path d="M64.4559 282.823C66.4998 280.779 66.4998 277.466 64.4559 275.422C62.412 273.378 59.0982 273.378 57.0543 275.422C55.0104 277.466 55.0104 280.779 57.0543 282.823C59.0982 284.866 62.412 284.866 64.4559 282.823Z" fill="#EF582A"/>
<path d="M82.2276 283.745C84.7842 283.745 86.8595 281.669 86.8595 279.113C86.8595 276.556 84.7842 274.481 82.2276 274.481C79.671 274.481 77.5957 276.556 77.5957 279.113C77.5957 281.669 79.671 283.745 82.2276 283.745Z" fill="#EF582A"/>
<path d="M103.702 283.143C105.928 283.143 107.762 281.338 107.762 279.082C107.762 276.857 105.958 275.022 103.702 275.022C101.446 275.022 99.6416 276.827 99.6416 279.082C99.6416 281.338 101.476 283.143 103.702 283.143Z" fill="#EF582A"/>
<path d="M125.178 282.572C127.073 282.572 128.637 281.038 128.637 279.113C128.637 277.218 127.103 275.654 125.178 275.654C123.283 275.654 121.719 277.188 121.719 279.113C121.719 281.008 123.253 282.572 125.178 282.572Z" fill="#EF582A"/>
<path d="M146.624 281.97C148.188 281.97 149.481 280.677 149.481 279.113C149.481 277.549 148.188 276.255 146.624 276.255C145.06 276.255 143.767 277.549 143.767 279.113C143.767 280.677 145.06 281.97 146.624 281.97Z" fill="#EF582A"/>
<path d="M168.598 281.314C169.811 281.028 170.563 279.814 170.277 278.601C169.992 277.389 168.778 276.637 167.565 276.922C166.352 277.207 165.6 278.422 165.886 279.634C166.171 280.847 167.386 281.599 168.598 281.314Z" fill="#EF582A"/>
<path d="M189.573 280.767C190.506 280.767 191.227 280.015 191.227 279.112C191.227 278.18 190.476 277.458 189.573 277.458C188.641 277.458 187.919 278.21 187.919 279.112C187.919 280.015 188.641 280.767 189.573 280.767Z" fill="#EF582A"/>
<path d="M211.049 280.135C211.62 280.135 212.072 279.684 212.072 279.112C212.072 278.541 211.62 278.09 211.049 278.09C210.477 278.09 210.026 278.541 210.026 279.112C210.026 279.654 210.477 280.135 211.049 280.135Z" fill="#EF582A"/>
<path d="M232.524 279.533C232.764 279.533 232.945 279.353 232.945 279.112C232.945 278.872 232.764 278.691 232.524 278.691C232.283 278.691 232.103 278.872 232.103 279.112C232.103 279.353 232.283 279.533 232.524 279.533Z" fill="#EF582A"/>
<path d="M-3.64261 307.772C0.3276 307.772 3.54588 304.554 3.54588 300.585C3.54588 296.615 0.3276 293.367 -3.64261 293.367C-7.61281 293.367 -10.8311 296.585 -10.8311 300.585C-10.8311 304.554 -7.61281 307.772 -3.64261 307.772Z" fill="#EF582A"/>
<path d="M17.8328 307.171C21.4722 307.171 24.4498 304.224 24.4498 300.555C24.4498 296.886 21.5023 293.938 17.8328 293.938C14.1935 293.938 11.2158 296.886 11.2158 300.555C11.2158 304.224 14.1935 307.171 17.8328 307.171Z" fill="#EF582A"/>
<path d="M39.3075 306.599C42.616 306.599 45.3229 303.893 45.3229 300.585C45.3229 297.277 42.616 294.57 39.3075 294.57C35.999 294.57 33.292 297.277 33.292 300.585C33.292 303.893 35.9689 306.599 39.3075 306.599Z" fill="#EF582A"/>
<path d="M60.7524 306.058C63.7902 306.058 66.2265 303.592 66.2265 300.585C66.2265 297.547 63.7601 295.111 60.7524 295.111C57.7447 295.111 55.2783 297.577 55.2783 300.585C55.2783 303.592 57.7447 306.058 60.7524 306.058Z" fill="#EF582A"/>
<path d="M82.2284 305.398C84.8862 305.398 87.0408 303.243 87.0408 300.585C87.0408 297.928 84.8862 295.773 82.2284 295.773C79.5706 295.773 77.416 297.928 77.416 300.585C77.416 303.243 79.5706 305.398 82.2284 305.398Z" fill="#EF582A"/>
<path d="M103.703 304.796C106.049 304.796 107.944 302.901 107.944 300.555C107.944 298.209 106.049 296.314 103.703 296.314C101.357 296.314 99.4619 298.209 99.4619 300.555C99.4619 302.901 101.357 304.796 103.703 304.796Z" fill="#EF582A"/>
<path d="M125.178 304.194C127.194 304.194 128.818 302.57 128.818 300.555C128.818 298.54 127.194 296.916 125.178 296.916C123.163 296.916 121.539 298.54 121.539 300.555C121.539 302.57 123.163 304.194 125.178 304.194Z" fill="#EF582A"/>
<path d="M146.624 303.563C148.269 303.563 149.602 302.23 149.602 300.585C149.602 298.941 148.269 297.608 146.624 297.608C144.98 297.608 143.646 298.941 143.646 300.585C143.646 302.23 144.98 303.563 146.624 303.563Z" fill="#EF582A"/>
<path d="M168.099 302.961C169.422 302.961 170.475 301.908 170.475 300.585C170.475 299.261 169.422 298.209 168.099 298.209C166.775 298.209 165.723 299.261 165.723 300.585C165.723 301.878 166.805 302.961 168.099 302.961Z" fill="#EF582A"/>
<path d="M189.574 302.36C190.567 302.36 191.349 301.547 191.349 300.585C191.349 299.592 190.537 298.81 189.574 298.81C188.582 298.81 187.8 299.623 187.8 300.585C187.8 301.547 188.582 302.36 189.574 302.36Z" fill="#EF582A"/>
<path d="M211.049 301.698C211.681 301.698 212.192 301.186 212.192 300.555C212.192 299.923 211.681 299.412 211.049 299.412C210.418 299.412 209.906 299.923 209.906 300.555C209.906 301.186 210.418 301.698 211.049 301.698Z" fill="#EF582A"/>
<path d="M232.524 301.096C232.825 301.096 233.065 300.856 233.065 300.555C233.065 300.254 232.825 300.013 232.524 300.013C232.223 300.013 231.982 300.254 231.982 300.555C231.982 300.856 232.223 301.096 232.524 301.096Z" fill="#EF582A"/>
<path d="M253.97 300.646C254 300.646 254.03 300.615 254.03 300.585C254.03 300.555 254 300.525 253.97 300.525C253.939 300.525 253.909 300.555 253.909 300.585C253.909 300.615 253.939 300.646 253.97 300.646Z" fill="#EF582A"/>
<path d="M-3.64221 329.485C0.478386 329.485 3.78691 326.147 3.78691 322.057C3.78691 317.937 0.448309 314.629 -3.64221 314.629C-7.7628 314.629 -11.0713 317.967 -11.0713 322.057C-11.0713 326.147 -7.73272 329.485 -3.64221 329.485Z" fill="#EF582A"/>
<path d="M17.8322 328.884C21.622 328.884 24.6899 325.816 24.6899 322.027C24.6899 318.238 21.622 315.17 17.8322 315.17C14.0425 315.17 10.9746 318.238 10.9746 322.027C10.9746 325.816 14.0425 328.884 17.8322 328.884Z" fill="#EF582A"/>
<path d="M39.3072 328.222C42.7361 328.222 45.5032 325.455 45.5032 322.027C45.5032 318.599 42.7361 315.832 39.3072 315.832C35.8784 315.832 33.1113 318.599 33.1113 322.027C33.1113 325.455 35.8784 328.222 39.3072 328.222Z" fill="#EF582A"/>
<path d="M60.7516 327.621C63.8496 327.621 66.346 325.125 66.346 322.027C66.346 318.93 63.8496 316.433 60.7516 316.433C57.6537 316.433 55.1572 318.93 55.1572 322.027C55.1572 325.125 57.6838 327.621 60.7516 327.621Z" fill="#EF582A"/>
<path d="M82.2276 326.96C84.9518 326.96 87.1603 324.752 87.1603 322.028C87.1603 319.304 84.9518 317.095 82.2276 317.095C79.5033 317.095 77.2949 319.304 77.2949 322.028C77.2949 324.752 79.5033 326.96 82.2276 326.96Z" fill="#EF582A"/>
<path d="M103.704 326.389C106.11 326.389 108.035 324.434 108.035 322.058C108.035 319.652 106.08 317.727 103.704 317.727C101.297 317.727 99.3724 319.682 99.3724 322.058C99.3423 324.434 101.297 326.389 103.704 326.389Z" fill="#EF582A"/>
<path d="M128.826 322.62C129.153 320.603 127.784 318.703 125.767 318.376C123.75 318.049 121.85 319.418 121.522 321.435C121.195 323.452 122.565 325.352 124.582 325.68C126.598 326.007 128.499 324.637 128.826 322.62Z" fill="#EF582A"/>
<path d="M146.623 325.125C148.338 325.125 149.721 323.742 149.721 322.027C149.721 320.313 148.338 318.929 146.623 318.929C144.909 318.929 143.525 320.313 143.525 322.027C143.555 323.742 144.939 325.125 146.623 325.125Z" fill="#EF582A"/>
<path d="M168.098 324.494C169.452 324.494 170.535 323.411 170.535 322.058C170.535 320.704 169.452 319.621 168.098 319.621C166.745 319.621 165.662 320.704 165.662 322.058C165.662 323.381 166.745 324.494 168.098 324.494Z" fill="#EF582A"/>
<path d="M189.574 323.892C190.597 323.892 191.409 323.08 191.409 322.057C191.409 321.035 190.597 320.223 189.574 320.223C188.551 320.223 187.739 321.035 187.739 322.057C187.739 323.05 188.551 323.892 189.574 323.892Z" fill="#EF582A"/>
<path d="M211.05 323.231C211.711 323.231 212.253 322.689 212.253 322.027C212.253 321.366 211.711 320.824 211.05 320.824C210.388 320.824 209.847 321.366 209.847 322.027C209.847 322.689 210.388 323.231 211.05 323.231Z" fill="#EF582A"/>
<path d="M232.524 322.629C232.855 322.629 233.126 322.358 233.126 322.027C233.126 321.696 232.855 321.426 232.524 321.426C232.194 321.426 231.923 321.696 231.923 322.027C231.923 322.358 232.194 322.629 232.524 322.629Z" fill="#EF582A"/>
<path d="M253.97 322.088C254 322.088 254.03 322.058 254.03 322.028C254.03 321.997 254 321.967 253.97 321.967C253.939 321.967 253.909 321.997 253.909 322.028C253.909 322.058 253.939 322.088 253.97 322.088Z" fill="#EF582A"/>
<path d="M-3.64359 350.988C0.492609 350.988 3.84567 347.635 3.84567 343.5C3.84567 339.364 0.492609 336.011 -3.64359 336.011C-7.77979 336.011 -11.1328 339.364 -11.1328 343.5C-11.1328 347.635 -7.77979 350.988 -3.64359 350.988Z" fill="#EF582A"/>
<path d="M17.8318 350.417C21.6517 350.417 24.7496 347.319 24.7496 343.5C24.7496 339.68 21.6517 336.583 17.8318 336.583C14.012 336.583 10.9141 339.68 10.9141 343.5C10.9141 347.319 14.012 350.417 17.8318 350.417Z" fill="#EF582A"/>
<path d="M39.3079 349.755C42.7667 349.755 45.5639 346.958 45.5639 343.5C45.5639 340.041 42.7667 337.244 39.3079 337.244C35.849 337.244 33.0518 340.041 33.0518 343.5C33.0518 346.958 35.849 349.755 39.3079 349.755Z" fill="#EF582A"/>
<path d="M61.6707 349.078C64.7533 348.578 66.8467 345.674 66.3464 342.592C65.8461 339.509 62.9416 337.416 59.859 337.917C56.7763 338.417 54.6829 341.321 55.1832 344.403C55.6835 347.485 58.588 349.579 61.6707 349.078Z" fill="#EF582A"/>
<path d="M82.2272 348.493C84.9943 348.493 87.2201 346.267 87.2201 343.5C87.2201 340.733 84.9943 338.507 82.2272 338.507C79.4601 338.507 77.2344 340.733 77.2344 343.5C77.2344 346.267 79.4601 348.493 82.2272 348.493Z" fill="#EF582A"/>
<path d="M103.704 347.861C106.11 347.861 108.035 345.906 108.035 343.53C108.035 341.124 106.08 339.199 103.704 339.199C101.297 339.199 99.3724 341.154 99.3724 343.53C99.3423 345.906 101.297 347.861 103.704 347.861Z" fill="#EF582A"/>
<path d="M125.179 347.26C127.254 347.26 128.938 345.575 128.938 343.5C128.938 341.425 127.254 339.74 125.179 339.74C123.103 339.74 121.419 341.425 121.419 343.5C121.419 345.575 123.103 347.26 125.179 347.26Z" fill="#EF582A"/>
<path d="M146.623 346.598C148.334 346.598 149.721 345.211 149.721 343.5C149.721 341.789 148.334 340.402 146.623 340.402C144.912 340.402 143.525 341.789 143.525 343.5C143.525 345.211 144.912 346.598 146.623 346.598Z" fill="#EF582A"/>
<path d="M168.099 345.996C169.482 345.996 170.595 344.883 170.595 343.5C170.595 342.116 169.482 341.004 168.099 341.004C166.715 341.004 165.603 342.116 165.603 343.5C165.603 344.883 166.715 345.996 168.099 345.996Z" fill="#EF582A"/>
<path d="M189.574 345.335C190.587 345.335 191.409 344.513 191.409 343.5C191.409 342.487 190.587 341.665 189.574 341.665C188.561 341.665 187.739 342.487 187.739 343.5C187.739 344.513 188.561 345.335 189.574 345.335Z" fill="#EF582A"/>
<path d="M211.048 344.763C211.74 344.763 212.312 344.192 212.312 343.5C212.312 342.808 211.74 342.237 211.048 342.237C210.357 342.237 209.785 342.808 209.785 343.5C209.785 344.192 210.357 344.763 211.048 344.763Z" fill="#EF582A"/>
<path d="M232.524 344.101C232.855 344.101 233.126 343.83 233.126 343.499C233.126 343.169 232.855 342.898 232.524 342.898C232.194 342.898 231.923 343.169 231.923 343.499C231.923 343.83 232.194 344.101 232.524 344.101Z" fill="#EF582A"/>
<path d="M253.97 343.561C254 343.561 254.03 343.53 254.03 343.5C254.03 343.47 254 343.44 253.97 343.44C253.939 343.44 253.909 343.47 253.909 343.5C253.909 343.53 253.939 343.561 253.97 343.561Z" fill="#EF582A"/>
<path d="M-3.64221 372.4C0.478386 372.4 3.78691 369.062 3.78691 364.972C3.78691 360.882 0.448309 357.544 -3.64221 357.544C-7.7628 357.544 -11.0713 360.882 -11.0713 364.972C-11.0713 369.062 -7.73272 372.4 -3.64221 372.4Z" fill="#EF582A"/>
<path d="M17.8322 371.829C21.622 371.829 24.6899 368.761 24.6899 364.972C24.6899 361.183 21.622 358.115 17.8322 358.115C14.0425 358.115 10.9746 361.183 10.9746 364.972C10.9746 368.761 14.0425 371.829 17.8322 371.829Z" fill="#EF582A"/>
<path d="M39.3072 371.167C42.7361 371.167 45.5032 368.401 45.5032 364.972C45.5032 361.544 42.7361 358.777 39.3072 358.777C35.8784 358.777 33.1113 361.544 33.1113 364.972C33.1113 368.401 35.8784 371.167 39.3072 371.167Z" fill="#EF582A"/>
<path d="M60.7516 370.566C63.8496 370.566 66.346 368.07 66.346 364.972C66.346 361.875 63.8496 359.379 60.7516 359.379C57.6537 359.379 55.1572 361.875 55.1572 364.972C55.1572 368.07 57.6838 370.566 60.7516 370.566Z" fill="#EF582A"/>
<path d="M82.2276 369.906C84.9518 369.906 87.1603 367.697 87.1603 364.973C87.1603 362.249 84.9518 360.04 82.2276 360.04C79.5033 360.04 77.2949 362.249 77.2949 364.973C77.2949 367.697 79.5033 369.906 82.2276 369.906Z" fill="#EF582A"/>
<path d="M103.704 369.304C106.11 369.304 108.035 367.349 108.035 364.973C108.035 362.567 106.08 360.642 103.704 360.642C101.297 360.642 99.3724 362.597 99.3724 364.973C99.3423 367.379 101.297 369.304 103.704 369.304Z" fill="#EF582A"/>
<path d="M125.179 368.732C127.254 368.732 128.938 367.048 128.938 364.973C128.938 362.897 127.254 361.213 125.179 361.213C123.103 361.213 121.419 362.897 121.419 364.973C121.419 367.048 123.103 368.732 125.179 368.732Z" fill="#EF582A"/>
<path d="M146.623 368.07C148.334 368.07 149.721 366.683 149.721 364.972C149.721 363.261 148.334 361.874 146.623 361.874C144.912 361.874 143.525 363.261 143.525 364.972C143.525 366.683 144.912 368.07 146.623 368.07Z" fill="#EF582A"/>
<path d="M168.098 367.409C169.452 367.409 170.535 366.326 170.535 364.972C170.535 363.619 169.452 362.536 168.098 362.536C166.745 362.536 165.662 363.619 165.662 364.972C165.662 366.326 166.745 367.409 168.098 367.409Z" fill="#EF582A"/>
<path d="M189.574 366.807C190.597 366.807 191.409 365.995 191.409 364.972C191.409 363.95 190.597 363.138 189.574 363.138C188.551 363.138 187.739 363.95 187.739 364.972C187.739 365.995 188.551 366.807 189.574 366.807Z" fill="#EF582A"/>
<path d="M211.05 366.145C211.711 366.145 212.253 365.604 212.253 364.942C212.253 364.281 211.711 363.739 211.05 363.739C210.388 363.739 209.847 364.281 209.847 364.942C209.847 365.634 210.388 366.145 211.05 366.145Z" fill="#EF582A"/>
<path d="M232.524 365.574C232.855 365.574 233.126 365.303 233.126 364.972C233.126 364.641 232.855 364.371 232.524 364.371C232.194 364.371 231.923 364.641 231.923 364.972C231.923 365.303 232.194 365.574 232.524 365.574Z" fill="#EF582A"/>
<path d="M253.969 365.033C253.999 365.033 254.029 365.003 254.029 364.972C254.029 364.942 253.999 364.912 253.969 364.912C253.938 364.912 253.908 364.942 253.908 364.972C253.908 365.003 253.938 365.033 253.969 365.033Z" fill="#EF582A"/>
<path d="M-3.64261 393.632C0.327482 393.632 3.54588 390.414 3.54588 386.444C3.54588 382.475 0.327482 379.257 -3.64261 379.257C-7.61269 379.257 -10.8311 382.475 -10.8311 386.444C-10.8311 390.414 -7.61269 393.632 -3.64261 393.632Z" fill="#EF582A"/>
<path d="M24.0242 388.989C25.4355 385.582 23.8176 381.677 20.4106 380.266C17.0035 378.855 13.0975 380.472 11.6862 383.879C10.2749 387.286 11.8928 391.191 15.2999 392.602C18.7069 394.013 22.613 392.396 24.0242 388.989Z" fill="#EF582A"/>
<path d="M39.307 392.519C42.6625 392.519 45.3827 389.8 45.3827 386.445C45.3827 383.09 42.6625 380.37 39.307 380.37C35.9516 380.37 33.2314 383.09 33.2314 386.445C33.2314 389.8 35.9516 392.519 39.307 392.519Z" fill="#EF582A"/>
<path d="M60.7524 391.918C63.7902 391.918 66.2265 389.452 66.2265 386.445C66.2265 383.407 63.7601 380.971 60.7524 380.971C57.7447 380.971 55.2783 383.437 55.2783 386.445C55.2783 389.452 57.7447 391.918 60.7524 391.918Z" fill="#EF582A"/>
<path d="M82.2284 391.258C84.8862 391.258 87.0408 389.103 87.0408 386.445C87.0408 383.787 84.8862 381.633 82.2284 381.633C79.5706 381.633 77.416 383.787 77.416 386.445C77.416 389.103 79.5706 391.258 82.2284 391.258Z" fill="#EF582A"/>
<path d="M103.703 390.686C106.045 390.686 107.944 388.787 107.944 386.445C107.944 384.103 106.045 382.204 103.703 382.204C101.361 382.204 99.4619 384.103 99.4619 386.445C99.4619 388.787 101.361 390.686 103.703 390.686Z" fill="#EF582A"/>
<path d="M125.178 390.054C127.194 390.054 128.818 388.43 128.818 386.415C128.818 384.4 127.194 382.776 125.178 382.776C123.163 382.776 121.539 384.4 121.539 386.415C121.539 388.43 123.163 390.054 125.178 390.054Z" fill="#EF582A"/>
<path d="M146.624 389.423C148.269 389.423 149.602 388.09 149.602 386.445C149.602 384.801 148.269 383.467 146.624 383.467C144.98 383.467 143.646 384.801 143.646 386.445C143.646 388.09 144.98 389.423 146.624 389.423Z" fill="#EF582A"/>
<path d="M168.099 388.821C169.422 388.821 170.475 387.768 170.475 386.445C170.475 385.122 169.422 384.069 168.099 384.069C166.775 384.069 165.723 385.122 165.723 386.445C165.723 387.738 166.805 388.821 168.099 388.821Z" fill="#EF582A"/>
<path d="M189.574 388.219C190.567 388.219 191.349 387.407 191.349 386.445C191.349 385.452 190.537 384.67 189.574 384.67C188.582 384.67 187.8 385.482 187.8 386.445C187.8 387.407 188.582 388.219 189.574 388.219Z" fill="#EF582A"/>
<path d="M211.049 387.557C211.681 387.557 212.192 387.046 212.192 386.415C212.192 385.783 211.681 385.272 211.049 385.272C210.418 385.272 209.906 385.783 209.906 386.415C209.906 387.046 210.418 387.557 211.049 387.557Z" fill="#EF582A"/>
<path d="M232.524 386.956C232.825 386.956 233.065 386.715 233.065 386.415C233.065 386.114 232.825 385.873 232.524 385.873C232.223 385.873 231.982 386.114 231.982 386.415C231.982 386.746 232.223 386.956 232.524 386.956Z" fill="#EF582A"/>
<path d="M253.969 386.506C253.999 386.506 254.029 386.475 254.029 386.445C254.029 386.415 253.999 386.385 253.969 386.385C253.938 386.385 253.908 386.415 253.908 386.445C253.908 386.475 253.938 386.506 253.969 386.506Z" fill="#EF582A"/>
<path d="M-3.64374 414.804C0.176846 414.804 3.27404 411.707 3.27404 407.887C3.27404 404.067 0.176846 400.97 -3.64374 400.97C-7.46433 400.97 -10.5615 404.067 -10.5615 407.887C-10.5615 411.707 -7.46433 414.804 -3.64374 414.804Z" fill="#EF582A"/>
<path d="M17.8324 414.263C21.354 414.263 24.2088 411.408 24.2088 407.887C24.2088 404.366 21.354 401.511 17.8324 401.511C14.3108 401.511 11.4561 404.366 11.4561 407.887C11.4561 411.408 14.3108 414.263 17.8324 414.263Z" fill="#EF582A"/>
<path d="M43.4166 412.01C45.6955 409.732 45.6955 406.038 43.4167 403.759C41.1378 401.481 37.4431 401.481 35.1643 403.759C32.8854 406.038 32.8854 409.732 35.1643 412.01C37.4431 414.289 41.1378 414.289 43.4166 412.01Z" fill="#EF582A"/>
<path d="M61.948 412.941C64.7609 412.277 66.5027 409.458 65.8385 406.645C65.1742 403.832 62.3554 402.09 59.5425 402.755C56.7295 403.419 54.9877 406.237 55.652 409.05C56.3163 411.863 59.1351 413.605 61.948 412.941Z" fill="#EF582A"/>
<path d="M82.2276 412.52C84.7857 412.52 86.8595 410.446 86.8595 407.888C86.8595 405.33 84.7857 403.256 82.2276 403.256C79.6694 403.256 77.5957 405.33 77.5957 407.888C77.5957 410.446 79.6694 412.52 82.2276 412.52Z" fill="#EF582A"/>
<path d="M103.702 411.948C105.928 411.948 107.762 410.143 107.762 407.888C107.762 405.662 105.958 403.827 103.702 403.827C101.446 403.827 99.6416 405.632 99.6416 407.888C99.6416 410.143 101.476 411.948 103.702 411.948Z" fill="#EF582A"/>
<path d="M125.178 411.346C127.073 411.346 128.637 409.812 128.637 407.887C128.637 405.993 127.103 404.429 125.178 404.429C123.283 404.429 121.719 405.963 121.719 407.887C121.719 409.812 123.253 411.346 125.178 411.346Z" fill="#EF582A"/>
<path d="M146.624 410.745C148.202 410.745 149.481 409.465 149.481 407.887C149.481 406.309 148.202 405.03 146.624 405.03C145.046 405.03 143.767 406.309 143.767 407.887C143.767 409.465 145.046 410.745 146.624 410.745Z" fill="#EF582A"/>
<path d="M169.68 409.493C170.561 408.612 170.561 407.183 169.68 406.303C168.799 405.422 167.371 405.422 166.49 406.303C165.609 407.183 165.609 408.612 166.49 409.493C167.371 410.373 168.799 410.373 169.68 409.493Z" fill="#EF582A"/>
<path d="M189.573 409.572C190.506 409.572 191.227 408.82 191.227 407.917C191.227 406.985 190.476 406.263 189.573 406.263C188.641 406.263 187.919 407.015 187.919 407.917C187.919 408.82 188.641 409.572 189.573 409.572Z" fill="#EF582A"/>
<path d="M211.049 408.91C211.62 408.91 212.072 408.459 212.072 407.887C212.072 407.316 211.62 406.865 211.049 406.865C210.477 406.865 210.026 407.316 210.026 407.887C210.026 408.459 210.477 408.91 211.049 408.91Z" fill="#EF582A"/>
<path d="M232.524 408.308C232.764 408.308 232.945 408.128 232.945 407.887C232.945 407.646 232.764 407.466 232.524 407.466C232.283 407.466 232.103 407.646 232.103 407.887C232.103 408.128 232.283 408.308 232.524 408.308Z" fill="#EF582A"/>
<path d="M-3.64296 435.856C-0.0549269 435.856 2.85378 432.947 2.85378 429.36C2.85378 425.772 -0.0549269 422.864 -3.64296 422.864C-7.23098 422.864 -10.1396 425.772 -10.1396 429.36C-10.1396 432.947 -7.23098 435.856 -3.64296 435.856Z" fill="#EF582A"/>
<path d="M17.8328 435.374C21.1413 435.374 23.8483 432.668 23.8483 429.36C23.8483 426.051 21.1413 423.345 17.8328 423.345C14.5243 423.345 11.8174 426.051 11.8174 429.36C11.8174 432.698 14.5243 435.374 17.8328 435.374Z" fill="#EF582A"/>
<path d="M40.574 434.7C43.5485 433.997 45.3905 431.017 44.6881 428.043C43.9857 425.069 41.005 423.227 38.0304 423.929C35.0559 424.632 33.2139 427.612 33.9163 430.586C34.6187 433.56 37.5994 435.402 40.574 434.7Z" fill="#EF582A"/>
<path d="M60.7526 434.353C63.5197 434.353 65.7455 432.127 65.7455 429.36C65.7455 426.593 63.5197 424.367 60.7526 424.367C57.9855 424.367 55.7598 426.593 55.7598 429.36C55.7598 432.127 58.0156 434.353 60.7526 434.353Z" fill="#EF582A"/>
<path d="M83.2316 433.59C85.5918 433.033 87.0534 430.668 86.496 428.308C85.9386 425.948 83.5733 424.486 81.2131 425.043C78.8528 425.601 77.3913 427.966 77.9487 430.326C78.5061 432.686 80.8713 434.148 83.2316 433.59Z" fill="#EF582A"/>
<path d="M103.703 433.24C105.839 433.24 107.583 431.496 107.583 429.36C107.583 427.225 105.839 425.48 103.703 425.48C101.568 425.48 99.8232 427.225 99.8232 429.36C99.8232 431.496 101.568 433.24 103.703 433.24Z" fill="#EF582A"/>
<path d="M125.716 432.59C127.504 432.3 128.717 430.616 128.427 428.829C128.137 427.041 126.453 425.828 124.666 426.118C122.879 426.408 121.665 428.092 121.955 429.879C122.245 431.666 123.929 432.88 125.716 432.59Z" fill="#EF582A"/>
<path d="M146.623 432.037C148.102 432.037 149.3 430.838 149.3 429.36C149.3 427.881 148.102 426.683 146.623 426.683C145.145 426.683 143.946 427.881 143.946 429.36C143.946 430.838 145.145 432.037 146.623 432.037Z" fill="#EF582A"/>
<path d="M168.099 431.435C169.242 431.435 170.174 430.503 170.174 429.36C170.174 428.217 169.242 427.284 168.099 427.284C166.956 427.284 166.023 428.217 166.023 429.36C166.023 430.503 166.956 431.435 168.099 431.435Z" fill="#EF582A"/>
<path d="M189.573 430.864C190.386 430.864 191.047 430.202 191.047 429.39C191.047 428.578 190.386 427.916 189.573 427.916C188.761 427.916 188.1 428.578 188.1 429.39C188.1 430.202 188.761 430.864 189.573 430.864Z" fill="#EF582A"/>
<path d="M211.049 430.262C211.53 430.262 211.951 429.871 211.951 429.36C211.951 428.878 211.56 428.457 211.049 428.457C210.568 428.457 210.146 428.848 210.146 429.36C210.146 429.871 210.537 430.262 211.049 430.262Z" fill="#EF582A"/>
<path d="M232.524 429.66C232.675 429.66 232.825 429.54 232.825 429.36C232.825 429.209 232.705 429.059 232.524 429.059C232.374 429.059 232.224 429.179 232.224 429.36C232.224 429.54 232.344 429.66 232.524 429.66Z" fill="#EF582A"/>
<path d="M-3.64372 456.847C-0.335213 456.847 2.37175 454.17 2.37175 450.832C2.37175 447.524 -0.335213 444.817 -3.64372 444.817C-6.95222 444.817 -9.65918 447.524 -9.65918 450.832C-9.65918 454.14 -6.95222 456.847 -3.64372 456.847Z" fill="#EF582A"/>
<path d="M17.8327 456.426C20.9306 456.426 23.427 453.93 23.427 450.832C23.427 447.734 20.9306 445.238 17.8327 445.238C14.7347 445.238 12.2383 447.734 12.2383 450.832C12.2383 453.93 14.7347 456.426 17.8327 456.426Z" fill="#EF582A"/>
<path d="M39.3075 455.946C42.1314 455.946 44.4206 453.657 44.4206 450.833C44.4206 448.009 42.1314 445.72 39.3075 445.72C36.4836 445.72 34.1943 448.009 34.1943 450.833C34.1943 453.657 36.4836 455.946 39.3075 455.946Z" fill="#EF582A"/>
<path d="M60.752 455.464C63.3102 455.464 65.3839 453.39 65.3839 450.832C65.3839 448.274 63.3102 446.2 60.752 446.2C58.1939 446.2 56.1201 448.274 56.1201 450.832C56.1201 453.39 58.1939 455.464 60.752 455.464Z" fill="#EF582A"/>
<path d="M85.138 453.75C86.7473 452.141 86.7473 449.532 85.138 447.923C83.5288 446.314 80.9196 446.314 79.3103 447.923C77.7011 449.532 77.7011 452.141 79.3103 453.75C80.9196 455.359 83.5288 455.359 85.138 453.75Z" fill="#EF582A"/>
<path d="M103.702 454.412C105.679 454.412 107.281 452.809 107.281 450.833C107.281 448.856 105.679 447.253 103.702 447.253C101.726 447.253 100.123 448.856 100.123 450.833C100.123 452.809 101.726 454.412 103.702 454.412Z" fill="#EF582A"/>
<path d="M125.178 453.87C126.863 453.87 128.216 452.517 128.216 450.832C128.216 449.148 126.863 447.795 125.178 447.795C123.494 447.795 122.141 449.148 122.141 450.832C122.141 452.517 123.494 453.87 125.178 453.87Z" fill="#EF582A"/>
<path d="M146.624 453.269C147.977 453.269 149.06 452.186 149.06 450.832C149.06 449.479 147.977 448.396 146.624 448.396C145.27 448.396 144.188 449.479 144.188 450.832C144.188 452.186 145.3 453.269 146.624 453.269Z" fill="#EF582A"/>
<path d="M168.098 452.727C169.151 452.727 169.993 451.885 169.993 450.832C169.993 449.78 169.151 448.938 168.098 448.938C167.045 448.938 166.203 449.78 166.203 450.832C166.203 451.885 167.045 452.727 168.098 452.727Z" fill="#EF582A"/>
<path d="M189.574 452.125C190.296 452.125 190.898 451.524 190.898 450.802C190.898 450.08 190.326 449.479 189.574 449.479C188.853 449.479 188.251 450.05 188.251 450.802C188.251 451.554 188.853 452.125 189.574 452.125Z" fill="#EF582A"/>
<path d="M211.05 451.554C211.441 451.554 211.772 451.223 211.772 450.832C211.772 450.441 211.441 450.11 211.05 450.11C210.659 450.11 210.328 450.441 210.328 450.832C210.328 451.223 210.659 451.554 211.05 451.554Z" fill="#EF582A"/>
<path d="M232.524 450.952C232.584 450.952 232.644 450.892 232.644 450.832C232.644 450.772 232.584 450.712 232.524 450.712C232.463 450.712 232.403 450.772 232.403 450.832C232.403 450.892 232.433 450.952 232.524 450.952Z" fill="#EF582A"/>
<path d="M-3.64354 477.838C-0.58707 477.838 1.8907 475.36 1.8907 472.304C1.8907 469.248 -0.58707 466.771 -3.64354 466.771C-6.70001 466.771 -9.17773 469.248 -9.17773 472.304C-9.17773 475.36 -6.70001 477.838 -3.64354 477.838Z" fill="#EF582A"/>
<path d="M21.4478 475.916C23.4447 473.919 23.4447 470.682 21.4478 468.685C19.4509 466.689 16.2132 466.689 14.2163 468.685C12.2194 470.682 12.2194 473.919 14.2163 475.916C16.2132 477.912 19.4509 477.912 21.4478 475.916Z" fill="#EF582A"/>
<path d="M39.3073 476.997C41.8986 476.997 43.9993 474.896 43.9993 472.305C43.9993 469.714 41.8986 467.613 39.3073 467.613C36.7159 467.613 34.6152 469.714 34.6152 472.305C34.6152 474.896 36.7159 476.997 39.3073 476.997Z" fill="#EF582A"/>
<path d="M60.7526 476.546C63.0948 476.546 64.9935 474.647 64.9935 472.305C64.9935 469.963 63.0948 468.064 60.7526 468.064C58.4105 468.064 56.5117 469.963 56.5117 472.305C56.5117 474.647 58.4105 476.546 60.7526 476.546Z" fill="#EF582A"/>
<path d="M82.2284 476.035C84.3037 476.035 85.9881 474.35 85.9881 472.275C85.9881 470.2 84.3037 468.515 82.2284 468.515C80.1531 468.515 78.4688 470.2 78.4688 472.275C78.4688 474.35 80.1531 476.035 82.2284 476.035Z" fill="#EF582A"/>
<path d="M103.703 475.523C105.477 475.523 106.921 474.079 106.921 472.305C106.921 470.53 105.477 469.087 103.703 469.087C101.928 469.087 100.484 470.53 100.484 472.305C100.484 474.079 101.928 475.523 103.703 475.523Z" fill="#EF582A"/>
<path d="M125.178 475.042C126.682 475.042 127.915 473.809 127.915 472.305C127.915 470.801 126.682 469.568 125.178 469.568C123.675 469.568 122.441 470.801 122.441 472.305C122.441 473.809 123.644 475.042 125.178 475.042Z" fill="#EF582A"/>
<path d="M146.623 474.5C147.826 474.5 148.819 473.508 148.819 472.305C148.819 471.102 147.826 470.109 146.623 470.109C145.42 470.109 144.428 471.102 144.428 472.305C144.428 473.508 145.42 474.5 146.623 474.5Z" fill="#EF582A"/>
<path d="M168.099 473.899C169.001 473.899 169.693 473.177 169.693 472.305C169.693 471.402 168.971 470.711 168.099 470.711C167.197 470.711 166.505 471.432 166.505 472.305C166.505 473.177 167.227 473.899 168.099 473.899Z" fill="#EF582A"/>
<path d="M189.573 473.297C190.145 473.297 190.596 472.846 190.596 472.275C190.596 471.703 190.145 471.252 189.573 471.252C189.002 471.252 188.551 471.703 188.551 472.275C188.551 472.846 189.002 473.297 189.573 473.297Z" fill="#EF582A"/>
<path d="M211.049 472.786C211.319 472.786 211.53 472.575 211.53 472.304C211.53 472.034 211.319 471.823 211.049 471.823C210.778 471.823 210.567 472.034 210.567 472.304C210.567 472.545 210.778 472.786 211.049 472.786Z" fill="#EF582A"/>
<path d="M232.524 472.365C232.555 472.365 232.585 472.335 232.585 472.305C232.585 472.275 232.555 472.244 232.524 472.244C232.494 472.244 232.464 472.275 232.464 472.305C232.464 472.335 232.464 472.365 232.524 472.365Z" fill="#EF582A"/>
<path d="M-3.64291 498.74C-0.885448 498.74 1.34995 496.505 1.34995 493.748C1.34995 490.99 -0.885448 488.755 -3.64291 488.755C-6.40038 488.755 -8.63574 490.99 -8.63574 493.748C-8.63574 496.505 -6.40038 498.74 -3.64291 498.74Z" fill="#EF582A"/>
<path d="M22.115 495.525C23.0941 493.162 21.9719 490.452 19.6084 489.473C17.2449 488.494 14.5351 489.617 13.556 491.98C12.5769 494.344 13.6992 497.053 16.0627 498.032C18.4262 499.011 21.1359 497.888 22.115 495.525Z" fill="#EF582A"/>
<path d="M39.3073 497.988C41.6495 497.988 43.5482 496.09 43.5482 493.747C43.5482 491.405 41.6495 489.506 39.3073 489.506C36.9651 489.506 35.0664 491.405 35.0664 493.747C35.0664 496.09 36.9651 497.988 39.3073 497.988Z" fill="#EF582A"/>
<path d="M61.6266 497.42C63.6797 496.936 64.951 494.878 64.4662 492.825C63.9813 490.772 61.9239 489.501 59.8708 489.986C57.8177 490.47 56.5464 492.528 57.0312 494.581C57.5161 496.634 59.5735 497.905 61.6266 497.42Z" fill="#EF582A"/>
<path d="M82.2272 497.086C84.062 497.086 85.5659 495.582 85.5659 493.747C85.5659 491.913 84.062 490.409 82.2272 490.409C80.3925 490.409 78.8887 491.913 78.8887 493.747C78.8887 495.612 80.3925 497.086 82.2272 497.086Z" fill="#EF582A"/>
<path d="M104.174 496.564C105.731 496.312 106.789 494.844 106.536 493.286C106.283 491.728 104.816 490.671 103.258 490.923C101.7 491.176 100.642 492.644 100.895 494.202C101.148 495.759 102.616 496.817 104.174 496.564Z" fill="#EF582A"/>
<path d="M125.231 496.099C126.543 496.055 127.57 494.957 127.527 493.645C127.483 492.334 126.384 491.306 125.073 491.349C123.761 491.393 122.734 492.492 122.777 493.803C122.821 495.115 123.92 496.142 125.231 496.099Z" fill="#EF582A"/>
<path d="M146.624 495.582C147.637 495.582 148.459 494.76 148.459 493.747C148.459 492.734 147.637 491.912 146.624 491.912C145.611 491.912 144.789 492.734 144.789 493.747C144.789 494.76 145.611 495.582 146.624 495.582Z" fill="#EF582A"/>
<path d="M168.098 495.07C168.82 495.07 169.421 494.499 169.421 493.747C169.421 493.025 168.85 492.424 168.098 492.424C167.376 492.424 166.774 492.995 166.774 493.747C166.804 494.499 167.376 495.07 168.098 495.07Z" fill="#EF582A"/>
<path d="M189.574 494.529C189.995 494.529 190.356 494.168 190.356 493.747C190.356 493.326 189.995 492.965 189.574 492.965C189.153 492.965 188.792 493.326 188.792 493.747C188.792 494.198 189.153 494.529 189.574 494.529Z" fill="#EF582A"/>
<path d="M211.048 493.987C211.169 493.987 211.289 493.867 211.289 493.747C211.289 493.626 211.169 493.506 211.048 493.506C210.928 493.506 210.808 493.626 210.808 493.747C210.808 493.897 210.898 493.987 211.048 493.987Z" fill="#EF582A"/>
<path d="M-3.64388 519.611C-1.21863 519.611 0.747441 517.645 0.747441 515.22C0.747441 512.794 -1.21863 510.828 -3.64388 510.828C-6.06912 510.828 -8.03516 512.794 -8.03516 515.22C-8.03516 517.645 -6.06912 519.611 -3.64388 519.611Z" fill="#EF582A"/>
<path d="M20.7347 518.133C22.344 516.524 22.344 513.915 20.7347 512.306C19.1254 510.697 16.5163 510.697 14.907 512.306C13.2977 513.915 13.2977 516.524 14.907 518.133C16.5163 519.742 19.1254 519.742 20.7347 518.133Z" fill="#EF582A"/>
<path d="M39.3075 518.98C41.3829 518.98 43.0672 517.295 43.0672 515.22C43.0672 513.145 41.3829 511.46 39.3075 511.46C37.2322 511.46 35.5479 513.145 35.5479 515.22C35.5479 517.295 37.2322 518.98 39.3075 518.98Z" fill="#EF582A"/>
<path d="M60.7527 518.559C62.5874 518.559 64.0912 517.055 64.0912 515.22C64.0912 513.385 62.5874 511.881 60.7527 511.881C58.918 511.881 57.4141 513.385 57.4141 515.22C57.4441 517.055 58.918 518.559 60.7527 518.559Z" fill="#EF582A"/>
<path d="M82.2271 518.137C83.8512 518.137 85.1446 516.844 85.1446 515.22C85.1446 513.596 83.8512 512.302 82.2271 512.302C80.6029 512.302 79.3096 513.596 79.3096 515.22C79.3096 516.844 80.633 518.137 82.2271 518.137Z" fill="#EF582A"/>
<path d="M103.703 517.716C105.087 517.716 106.2 516.603 106.2 515.22C106.2 513.836 105.087 512.723 103.703 512.723C102.32 512.723 101.207 513.836 101.207 515.22C101.207 516.603 102.32 517.716 103.703 517.716Z" fill="#EF582A"/>
<path d="M125.178 517.265C126.291 517.265 127.193 516.363 127.193 515.25C127.193 514.137 126.291 513.235 125.178 513.235C124.065 513.235 123.163 514.137 123.163 515.25C123.133 516.333 124.065 517.265 125.178 517.265Z" fill="#EF582A"/>
<path d="M146.624 516.723C147.436 516.723 148.098 516.062 148.098 515.249C148.098 514.437 147.436 513.776 146.624 513.776C145.812 513.776 145.15 514.437 145.15 515.249C145.15 516.062 145.812 516.723 146.624 516.723Z" fill="#EF582A"/>
<path d="M168.098 516.182C168.61 516.182 169.061 515.761 169.061 515.22C169.061 514.708 168.64 514.257 168.098 514.257C167.587 514.257 167.136 514.678 167.136 515.22C167.166 515.761 167.587 516.182 168.098 516.182Z" fill="#EF582A"/>
<path d="M189.573 515.701C189.844 515.701 190.054 515.49 190.054 515.22C190.054 514.949 189.844 514.738 189.573 514.738C189.302 514.738 189.092 514.949 189.092 515.22C189.092 515.49 189.302 515.701 189.573 515.701Z" fill="#EF582A"/>
<path d="M211.05 515.28C211.08 515.28 211.11 515.25 211.11 515.22C211.11 515.189 211.08 515.159 211.05 515.159C211.019 515.159 210.989 515.189 210.989 515.22C210.989 515.25 211.019 515.28 211.05 515.28Z" fill="#EF582A"/>
<path d="M-3.64252 540.572C-1.49967 540.572 0.237464 538.835 0.237464 536.692C0.237464 534.55 -1.49967 532.812 -3.64252 532.812C-5.78537 532.812 -7.52246 534.55 -7.52246 536.692C-7.52246 538.835 -5.78537 540.572 -3.64252 540.572Z" fill="#EF582A"/>
<path d="M21.1565 538.059C21.9131 536.233 21.0459 534.139 19.2196 533.383C17.3932 532.627 15.2993 533.494 14.5428 535.32C13.7862 537.146 14.6534 539.24 16.4797 539.997C18.3061 540.753 20.4 539.886 21.1565 538.059Z" fill="#EF582A"/>
<path d="M39.3071 539.91C41.0845 539.91 42.5254 538.469 42.5254 536.692C42.5254 534.914 41.0845 533.474 39.3071 533.474C37.5297 533.474 36.0889 534.914 36.0889 536.692C36.0889 538.469 37.5297 539.91 39.3071 539.91Z" fill="#EF582A"/>
<path d="M61.2263 539.512C62.7841 539.26 63.8419 537.792 63.589 536.234C63.3362 534.676 61.8684 533.619 60.3107 533.871C58.753 534.124 57.6952 535.592 57.948 537.15C58.2009 538.707 59.6686 539.765 61.2263 539.512Z" fill="#EF582A"/>
<path d="M82.2278 539.189C83.6114 539.189 84.7243 538.076 84.7243 536.692C84.7243 535.309 83.6114 534.196 82.2278 534.196C80.8443 534.196 79.7314 535.309 79.7314 536.692C79.7314 538.076 80.8443 539.189 82.2278 539.189Z" fill="#EF582A"/>
<path d="M103.704 538.707C104.817 538.707 105.719 537.805 105.719 536.692C105.719 535.579 104.817 534.677 103.704 534.677C102.591 534.677 101.688 535.579 101.688 536.692C101.688 537.805 102.591 538.707 103.704 538.707Z" fill="#EF582A"/>
<path d="M125.179 538.286C126.081 538.286 126.773 537.564 126.773 536.692C126.773 535.79 126.051 535.098 125.179 535.098C124.277 535.098 123.585 535.82 123.585 536.692C123.555 537.564 124.277 538.286 125.179 538.286Z" fill="#EF582A"/>
<path d="M146.623 537.835C147.255 537.835 147.766 537.323 147.766 536.692C147.766 536.061 147.255 535.549 146.623 535.549C145.992 535.549 145.48 536.061 145.48 536.692C145.48 537.323 145.992 537.835 146.623 537.835Z" fill="#EF582A"/>
<path d="M168.099 537.294C168.429 537.294 168.7 537.023 168.7 536.692C168.7 536.361 168.429 536.091 168.099 536.091C167.768 536.091 167.497 536.361 167.497 536.692C167.497 537.023 167.768 537.294 168.099 537.294Z" fill="#EF582A"/>
<path d="M189.573 536.812C189.634 536.812 189.694 536.752 189.694 536.692C189.694 536.632 189.634 536.572 189.573 536.572C189.513 536.572 189.453 536.632 189.453 536.692C189.453 536.752 189.513 536.812 189.573 536.812Z" fill="#EF582A"/>
<path d="M17.8327 561.203C19.5171 561.203 20.8705 559.849 20.8705 558.165C20.8705 556.48 19.5171 555.127 17.8327 555.127C16.1484 555.127 14.7949 556.48 14.7949 558.165C14.7949 559.849 16.1484 561.203 17.8327 561.203Z" fill="#EF582A"/>
<path d="M41.239 560.09C42.308 559.021 42.308 557.289 41.239 556.22C40.1701 555.151 38.437 555.151 37.3681 556.22C36.2992 557.289 36.2992 559.021 37.3681 560.09C38.437 561.159 40.1701 561.159 41.239 560.09Z" fill="#EF582A"/>
<path d="M61.3041 560.428C62.5812 560.127 63.372 558.847 63.0704 557.57C62.7688 556.293 61.489 555.502 60.2119 555.804C58.9347 556.105 58.1439 557.385 58.4455 558.662C58.7471 559.939 60.0269 560.73 61.3041 560.428Z" fill="#EF582A"/>
<path d="M82.2281 560.18C83.341 560.18 84.2433 559.278 84.2433 558.165C84.2433 557.052 83.341 556.149 82.2281 556.149C81.1151 556.149 80.2129 557.052 80.2129 558.165C80.2129 559.278 81.1151 560.18 82.2281 560.18Z" fill="#EF582A"/>
<path d="M103.702 559.759C104.605 559.759 105.297 559.037 105.297 558.164C105.297 557.292 104.575 556.57 103.702 556.57C102.8 556.57 102.108 557.292 102.108 558.164C102.108 559.037 102.8 559.759 103.702 559.759Z" fill="#EF582A"/>
<path d="M125.178 559.278C125.81 559.278 126.321 558.766 126.321 558.135C126.321 557.503 125.81 556.992 125.178 556.992C124.546 556.992 124.035 557.503 124.035 558.135C124.035 558.766 124.546 559.278 125.178 559.278Z" fill="#EF582A"/>
<path d="M146.623 558.856C147.014 558.856 147.345 558.525 147.345 558.134C147.345 557.743 147.014 557.412 146.623 557.412C146.232 557.412 145.901 557.743 145.901 558.134C145.931 558.555 146.232 558.856 146.623 558.856Z" fill="#EF582A"/>
<path d="M168.098 558.405C168.218 558.405 168.339 558.285 168.339 558.164C168.339 558.044 168.218 557.924 168.098 557.924C167.978 557.924 167.857 558.044 167.857 558.164C167.857 558.285 167.978 558.405 168.098 558.405Z" fill="#EF582A"/>
<path d="M19.558 581.353C20.5095 580.402 20.5095 578.859 19.558 577.908C18.6065 576.956 17.0639 576.956 16.1124 577.908C15.161 578.859 15.161 580.402 16.1124 581.353C17.0639 582.304 18.6065 582.304 19.558 581.353Z" fill="#EF582A"/>
<path d="M39.3077 581.833C40.5107 581.833 41.5033 580.84 41.5033 579.637C41.5033 578.434 40.5107 577.442 39.3077 577.442C38.1046 577.442 37.112 578.434 37.112 579.637C37.0819 580.84 38.0745 581.833 39.3077 581.833Z" fill="#EF582A"/>
<path d="M60.7527 581.472C61.766 581.472 62.5874 580.65 62.5874 579.637C62.5874 578.624 61.766 577.802 60.7527 577.802C59.7394 577.802 58.918 578.624 58.918 579.637C58.918 580.65 59.7394 581.472 60.7527 581.472Z" fill="#EF582A"/>
<path d="M82.2277 581.111C83.0398 581.111 83.7015 580.449 83.7015 579.637C83.7015 578.825 83.0398 578.163 82.2277 578.163C81.4156 578.163 80.7539 578.825 80.7539 579.637C80.7539 580.449 81.4156 581.111 82.2277 581.111Z" fill="#EF582A"/>
<path d="M103.702 580.78C104.334 580.78 104.845 580.268 104.845 579.637C104.845 579.006 104.334 578.494 103.702 578.494C103.071 578.494 102.56 579.006 102.56 579.637C102.56 580.268 103.071 580.78 103.702 580.78Z" fill="#EF582A"/>
<path d="M125.179 580.328C125.57 580.328 125.901 579.998 125.901 579.607C125.901 579.216 125.57 578.885 125.179 578.885C124.788 578.885 124.457 579.216 124.457 579.607C124.457 579.998 124.788 580.328 125.179 580.328Z" fill="#EF582A"/>
<path d="M146.623 579.847C146.744 579.847 146.864 579.727 146.864 579.607C146.864 579.487 146.744 579.366 146.623 579.366C146.503 579.366 146.383 579.487 146.383 579.607C146.413 579.757 146.503 579.847 146.623 579.847Z" fill="#EF582A"/>
<path d="M17.8323 603.004C18.8851 603.004 19.7272 602.162 19.7272 601.109C19.7272 600.057 18.8851 599.215 17.8323 599.215C16.7796 599.215 15.9375 600.057 15.9375 601.109C15.9375 602.132 16.7796 603.004 17.8323 603.004Z" fill="#EF582A"/>
<path d="M39.3079 602.704C40.2102 602.704 40.902 601.982 40.902 601.109C40.902 600.207 40.1802 599.515 39.3079 599.515C38.4357 599.515 37.7138 600.237 37.7138 601.109C37.6837 601.982 38.4056 602.704 39.3079 602.704Z" fill="#EF582A"/>
<path d="M60.7531 602.403C61.475 602.403 62.0765 601.831 62.0765 601.079C62.0765 600.358 61.505 599.756 60.7531 599.756C60.0312 599.756 59.4297 600.328 59.4297 601.079C59.4598 601.801 60.0312 602.403 60.7531 602.403Z" fill="#EF582A"/>
<path d="M82.2281 602.042C82.7596 602.042 83.1906 601.611 83.1906 601.08C83.1906 600.548 82.7596 600.117 82.2281 600.117C81.6965 600.117 81.2656 600.548 81.2656 601.08C81.2656 601.611 81.6965 602.042 82.2281 602.042Z" fill="#EF582A"/>
<path d="M103.703 601.681C104.035 601.681 104.305 601.412 104.305 601.079C104.305 600.747 104.035 600.478 103.703 600.478C103.371 600.478 103.102 600.747 103.102 601.079C103.102 601.412 103.371 601.681 103.703 601.681Z" fill="#EF582A"/>
<path d="M125.179 601.32C125.299 601.32 125.42 601.2 125.42 601.079C125.42 600.959 125.299 600.839 125.179 600.839C125.059 600.839 124.938 600.959 124.938 601.079C124.938 601.23 125.029 601.32 125.179 601.32Z" fill="#EF582A"/>
<path d="M17.8322 623.875C18.5541 623.875 19.1556 623.304 19.1556 622.552C19.1556 621.83 18.5841 621.229 17.8322 621.229C17.1103 621.229 16.5088 621.83 16.5088 622.552C16.5088 623.274 17.1103 623.875 17.8322 623.875Z" fill="#EF582A"/>
<path d="M39.3068 623.575C39.8783 623.575 40.3295 623.123 40.3295 622.552C40.3295 621.981 39.8783 621.529 39.3068 621.529C38.7353 621.529 38.2842 621.981 38.2842 622.552C38.2842 623.123 38.7353 623.575 39.3068 623.575Z" fill="#EF582A"/>
<path d="M60.7527 623.334C61.1738 623.334 61.5347 622.973 61.5347 622.552C61.5347 622.131 61.1738 621.77 60.7527 621.77C60.3317 621.77 59.9707 622.131 59.9707 622.552C60.0008 622.973 60.3317 623.334 60.7527 623.334Z" fill="#EF582A"/>
<path d="M82.2273 623.033C82.498 623.033 82.7086 622.822 82.7086 622.552C82.7086 622.281 82.498 622.07 82.2273 622.07C81.9566 622.07 81.7461 622.281 81.7461 622.552C81.7461 622.822 81.9566 623.033 82.2273 623.033Z" fill="#EF582A"/>
<path d="M103.702 622.672C103.769 622.672 103.823 622.618 103.823 622.552C103.823 622.485 103.769 622.431 103.702 622.431C103.636 622.431 103.582 622.485 103.582 622.552C103.582 622.618 103.636 622.672 103.702 622.672Z" fill="#EF582A"/>
<path d="M17.8322 644.746C18.2232 644.746 18.5541 644.416 18.5541 644.025C18.5541 643.634 18.2232 643.303 17.8322 643.303C17.4412 643.303 17.1104 643.634 17.1104 644.025C17.1104 644.416 17.4412 644.746 17.8322 644.746Z" fill="#EF582A"/>
<path d="M39.3074 644.506C39.5781 644.506 39.7886 644.295 39.7886 644.024C39.7886 643.754 39.5781 643.543 39.3074 643.543C39.0367 643.543 38.8262 643.754 38.8262 644.024C38.8262 644.295 39.0367 644.506 39.3074 644.506Z" fill="#EF582A"/>
<path d="M60.7524 644.265C60.8727 644.265 60.9929 644.145 60.9929 644.024C60.9929 643.904 60.8727 643.784 60.7524 643.784C60.632 643.784 60.5117 643.904 60.5117 644.024C60.5418 644.145 60.632 644.265 60.7524 644.265Z" fill="#EF582A"/>
<path d="M82.2284 644.085C82.2586 644.085 82.2889 644.055 82.2889 644.025C82.2889 643.994 82.2586 643.964 82.2284 643.964C82.1982 643.964 82.168 643.994 82.168 644.025C82.168 644.055 82.1982 644.085 82.2284 644.085Z" fill="#EF582A"/>
<path d="M17.8332 665.587C17.8934 665.587 17.9535 665.527 17.9535 665.467C17.9535 665.407 17.8934 665.347 17.8332 665.347C17.7731 665.347 17.7129 665.407 17.7129 665.467C17.7129 665.557 17.7731 665.587 17.8332 665.587Z" fill="#EF582A"/>
<path d="M39.3075 665.557C39.3377 665.557 39.368 665.527 39.368 665.497C39.368 665.467 39.3377 665.437 39.3075 665.437C39.2773 665.437 39.2471 665.467 39.2471 665.497C39.2471 665.527 39.2773 665.557 39.3075 665.557Z" fill="#EF582A"/>
</g>
</svg>
