<svg width="30" height="30" viewBox="0 0 30 30" fill="none" xmlns="http://www.w3.org/2000/svg">
<path fill-rule="evenodd" clip-rule="evenodd" d="M23.7497 2.5C24.4401 2.5 24.9997 3.05965 24.9997 3.75V10C24.9997 10.6903 24.4401 11.25 23.7497 11.25H17.4997C16.8094 11.25 16.2497 10.6903 16.2497 10C16.2497 9.30965 16.8094 8.75 17.4997 8.75H21.1237C20.1694 7.8149 19.0082 7.10576 17.7255 6.68525C15.9474 6.10236 14.029 6.10514 12.2521 6.69276C10.4754 7.28038 8.93385 8.42185 7.8539 9.94995C6.77398 11.478 6.21272 13.3121 6.25192 15.1831C6.29111 17.0541 6.92895 18.8633 8.07197 20.3449C9.21501 21.8265 10.8026 22.9023 12.6024 23.415C14.4021 23.9276 16.3189 23.8499 18.0711 23.193C19.8234 22.5361 21.3189 21.3347 22.338 19.7654C22.714 19.1864 23.4881 19.0219 24.0671 19.3979C24.6461 19.7739 24.8106 20.548 24.4346 21.127C23.1242 23.1448 21.2015 24.6894 18.9486 25.5339C16.6957 26.3785 14.2314 26.4784 11.9174 25.8192C9.60355 25.1601 7.56225 23.7769 6.09257 21.872C4.62287 19.967 3.80285 17.6409 3.75247 15.2355C3.70208 12.8302 4.42358 10.472 5.81228 8.50709C7.20095 6.54219 9.18297 5.07463 11.4672 4.3192C13.7512 3.56379 16.2179 3.56011 18.5042 4.30964C19.9895 4.79654 21.348 5.58441 22.4997 6.61448V3.75C22.4997 3.05965 23.0594 2.5 23.7497 2.5Z" fill="white"/>
</svg>
