<svg width="36" height="36" viewBox="0 0 36 36" fill="none" xmlns="http://www.w3.org/2000/svg">
<path d="M17.9991 3.87C11.4233 3.87 5.55679 8.59644 4.18123 15.0325C3.49399 18.2484 3.95695 21.668 5.49019 24.5779C6.96583 27.3784 9.38503 29.6417 12.2794 30.9244C15.2901 32.2589 18.7465 32.4914 21.9109 31.5814C24.9637 30.7037 27.6705 28.7773 29.5133 26.1914C33.3664 20.7853 32.8513 13.1915 28.3181 8.34732C25.6613 5.50836 21.8878 3.87 17.9991 3.87ZM24.7775 18.7549L20.9255 22.6998C19.9503 23.6988 18.4088 22.1854 19.3801 21.191L21.3237 19.2006H12.1127C11.4586 19.2006 10.9129 18.6545 10.9129 18.0007C10.9129 17.347 11.459 16.8008 12.1127 16.8008H21.2776L19.2955 14.819C18.3105 13.8341 19.8376 12.3066 20.8226 13.2916L24.7685 17.2372C25.1869 17.6551 25.1908 18.3319 24.7775 18.7549Z" fill="#088216"/>
</svg>
